<?xml version="1.0" encoding="utf-8"?>
<!-- Generator: Adobe Illustrator 16.0.0, SVG Export Plug-In . SVG Version: 6.00 Build 0)  -->
<!DOCTYPE svg PUBLIC "-//W3C//DTD SVG 1.1//EN" "http://www.w3.org/Graphics/SVG/1.1/DTD/svg11.dtd">
<svg version="1.1" id="Layer_1" xmlns="http://www.w3.org/2000/svg" xmlns:xlink="http://www.w3.org/1999/xlink" x="0px" y="0px"
	 width="350px" height="200px" viewBox="0 300 350 200" enable-background="new 0 300 350 200" xml:space="preserve">
<g id="layer101">
	<path fill="#0E3329" d="M-84.545,361.818v-400h400h400v400v400h-400h-400V361.818z"/>
</g>
<g id="layer102">
	<path fill="#37CCA2" d="M-84.545,361.818v-400h400h400v400v400h-400h-400V361.818z M306.355,391.818c1.9-0.5,4.5-1.9,5.7-3.1
		c2-1.9,9.2-17.601,16.3-35.601l2.1-5.3h-5.4h-5.399l-3.8,9.5c-2.1,5.3-4.1,9.2-4.4,8.8c-0.4-0.5-2.3-4.7-4.1-9.5l-3.4-8.8h-5.7
		c-3.2,0-5.8,0.2-5.8,0.5s2.9,7.5,6.5,16s6.5,15.9,6.5,16.5c0,1.9-4.5,3.3-6.8,2.1c-1.9-1-2.4-0.699-4.2,2.801
		c-2.1,4.199-1.9,4.699,2.8,6.1C300.955,392.918,302.455,392.918,306.355,391.818z M56.455,370.818c0-8.7,0.3-10.3,2-12
		c2.7-2.7,6.5-2.6,8.4,0.2c1.2,1.7,1.6,4.8,1.6,12v9.8h5.5h5.5v-12.2c0-13.3-1.2-17.2-6.1-19.899c-3.2-1.7-11.5-1.4-14.4,0.5
		c-2.2,1.399-2.5,1.5-2.5,0.1c0-1.2-1.3-1.5-6-1.5h-6v15.8c0,8.7,0.3,16.2,0.7,16.5c0.3,0.4,3,0.7,6,0.7h5.3V370.818z
		 M113.655,364.318l6.6-16l-4.5-0.3c-6-0.4-6.6-0.101-8.2,4.399c-0.8,2.2-2.5,6.4-3.8,9.4l-2.5,5.5l-3.7-9.5l-3.6-9.5l-5.8-0.3
		c-3.1-0.2-5.7,0-5.7,0.3s2.5,6.8,5.6,14.3s6,14.7,6.5,16c0.8,2.101,1.4,2.3,6.6,2l5.8-0.3L113.655,364.318z M148.055,378.918
		c2.3-1,4.4-2.3,4.7-2.8c0.4-0.6-0.7-2.2-2.2-3.7c-2.4-2.3-3.2-2.6-4.9-1.699c-4.5,2.399-13.2,0.399-13.2-3.101
		c0-0.399,5.2-0.8,11.6-0.8h11.7l-0.5-4.9c-0.9-9.1-6.9-14.3-16.7-14.399c-13.9-0.101-22.2,12.399-16.1,24.3
		C126.555,379.818,138.755,383.118,148.055,378.918z M172.455,370.818c0-8.7,0.3-10.3,2-12c2.7-2.7,6.5-2.6,8.4,0.2
		c1.2,1.7,1.6,4.8,1.6,12v9.8h5.5h5.5v-12.2c0-13.3-1.2-17.2-6.1-19.899c-3.2-1.7-11.5-1.4-14.4,0.5c-2.2,1.399-2.5,1.5-2.5,0.1
		c0-1.2-1.3-1.5-6-1.5h-6v15.8c0,8.7,0.3,16.2,0.7,16.5c0.3,0.4,3,0.7,6,0.7h5.3V370.818z M224.355,379.219c0.6-0.5,0.3-2.4-0.5-4.5
		c-1.3-3.101-1.9-3.5-4.1-3.101c-3.4,0.601-4.3-1-4.3-8v-5.7l3.8-0.3c3.6-0.3,3.7-0.399,4-4.5l0.3-4.3h-4h-4.1v-4v-4h-5.5h-5.5v4
		c0,3.6-0.2,4-2.5,4s-2.5,0.4-2.5,4.5s0.2,4.5,2.5,4.5c2.4,0,2.5,0.2,2.5,7.6c0,8.601,0.8,10.7,5.3,13.5c2.5,1.5,4.4,1.9,8.5,1.601
		C221.155,380.318,223.955,379.719,224.355,379.219z M255.855,377.918c6.1-3.8,9.1-13,6.5-19.8s-8.7-10.5-17.4-10.5
		c-9.2,0-15,3.7-17.5,11.5c-2.5,7.9,1.4,16.101,9.5,19.9C242.155,381.418,250.955,380.918,255.855,377.918z M280.255,370.818
		c0.3-10.8,1.5-13,6.9-13h3.3v-5.4v-5.399l-3.3,0.7c-1.8,0.5-4.2,1.3-5.5,2c-1.8,1-2.2,0.899-2.2-0.4c0-1.2-1.2-1.5-5.5-1.5h-5.5
		v15.8c0,8.7,0.3,16.2,0.7,16.601c0.4,0.399,3,0.6,5.8,0.399l5-0.3L280.255,370.818z M37.455,358.818v-21h-6h-6v21v21h6h6V358.818z"
		/>
	<path fill="#37CCA2" d="M132.655,358.618c2.7-4,11.8-3.399,11.8,0.8c0,1.101-1.7,1.4-6.6,1.4h-6.6L132.655,358.618z"/>
	<path fill="#37CCA2" d="M240.455,369.818c-2.6-2.6-2.7-9-0.2-11.3c2.3-2.101,7.6-2.2,9.6-0.101c0.9,0.9,1.6,3.2,1.6,5.5
		c0,4.601-2.7,7.9-6.5,7.9C243.555,371.818,241.555,370.918,240.455,369.818z"/>
</g>
<g id="layer103">
	<path fill="#FFFFFF" d="M234.155,463.418c-6.5-1.8-7.3-2.699-5.7-6.6c1.7-4,2-4.1,6.6-2.5c2.1,0.8,5.3,1.4,7,1.5
		c3.7,0,8.4-3.4,8.4-6.1c0-2.301,0-2.301-3.6-0.4c-4.1,2.1-8.3,1.9-13.4-0.7c-10.7-5.5-11.4-20.7-1.2-27c4.2-2.6,12-2.8,15.6-0.5
		c3.1,2.101,3.6,2.101,3.6,0.2c0-1.2,1.3-1.5,5.5-1.5h5.5v13.8c-0.1,19.3-1.6,24.3-8.7,28.4
		C249.655,464.418,240.055,465.118,234.155,463.418z M247.855,439.719c5.2-4.101,2.4-10.9-4.5-10.9c-6.5,0-9,6-4.4,10.5
		C241.955,442.318,244.355,442.418,247.855,439.719z"/>
	<path fill="#FFFFFF" d="M52.455,440.318c0-6.9,0.2-12.5,0.4-12.5c1.3,0,10.6,19.2,10.6,21.9c0,3.1,0,3.1-5.5,3.1h-5.5V440.318z"/>
	<path fill="#FFFFFF" d="M90.455,449.219c0-2.4,1.4-6.301,4.2-11.301c7.2-13.1,6.8-13.199,6.8,1.7v13.2h-5.5h-5.5V449.219z"/>
	<path fill="#FFFFFF" d="M112.855,451.219c-5.4-2.601-7-9.101-3.4-13.7c2.4-3,7.5-4.7,14.3-4.7c4.5,0,4.7-0.1,3.7-2
		c-1.5-2.9-5.7-3.6-10.8-1.8l-4.3,1.6l-1.9-3.7c-1.8-3.699-1.8-3.699,0.2-5c6.5-4,20.4-3,25.3,1.9c3,3,3,3.1,3.3,16l0.4,13h-5.1
		c-4.4,0-5.1-0.3-5.1-2c0-2,0-2-3.2,0C122.355,453.219,117.155,453.318,112.855,451.219z M126.255,444.219
		c1.2-0.801,2.2-2.4,2.2-3.5c0-1.7-0.6-2-4.1-1.7c-4.9,0.3-7.1,2.7-5,5.2C121.055,446.219,123.355,446.219,126.255,444.219z"/>
	<path fill="#FFFFFF" d="M147.155,452.118c-0.4-0.3-0.7-7.8-0.7-16.5v-15.8h6c4.7,0,6,0.3,6,1.5c0,1.4,0.3,1.3,2.5-0.1
		c2.9-1.9,11.2-2.2,14.4-0.5c4.9,2.699,6.1,6.6,6.1,19.899v12.2h-5.5h-5.5v-9.8c0-7.2-0.4-10.3-1.6-12c-1.9-2.8-5.7-2.9-8.4-0.2
		c-1.7,1.7-2,3.3-2,12v10h-5.3C150.155,452.818,147.455,452.519,147.155,452.118z"/>
	<path fill="#FFFFFF" d="M191.455,450.618c-6.3-4.3-6.2-12.1,0.2-15.399c1.7-0.9,6-1.9,9.5-2.2c4.3-0.3,6.3-0.9,6.3-1.8
		c0-3.2-6.3-4.101-13.7-1.9c-1.7,0.6-2.5,0.1-3.7-2.4c-2.1-4-2.1-4,2.1-5.699c5-2.2,16-2.101,20.1,0c5.8,3,6.7,5.6,6.7,19.1v12
		l-4.8,0.3c-4.2,0.3-4.9,0-5.4-1.8c-0.5-2-0.7-2-2.4-0.4c-1,0.9-4,1.9-6.6,2.101C195.855,452.918,194.255,452.519,191.455,450.618z
		 M205.555,444.818c1.1-0.6,1.9-2.1,1.9-3.5c0-2.1-0.5-2.5-2.9-2.5c-4.4,0-6.1,1-6.1,3.5
		C198.455,445.618,201.855,446.719,205.555,444.818z"/>
	<path fill="#FFFFFF" d="M279.255,451.818c-13.9-4.2-16.1-23-3.5-30c5.8-3.3,14.4-3.1,19.6,0.3c4.4,2.9,7.1,7.9,7.1,13.101v3.6
		h-11.5c-6.3,0-11.5,0.4-11.5,0.8c0,3.5,8.9,5.5,13,3c1.7-1.1,2.4-0.8,4.9,1.601c1.7,1.6,2.8,3.3,2.4,3.899
		C297.555,451.618,285.755,453.818,279.255,451.818z M291.455,432.019c0-0.5-0.6-1.601-1.3-2.601c-1.9-2.6-8.5-1.8-10.5,1.2
		l-1.4,2.2h6.6C288.455,432.818,291.455,432.418,291.455,432.019z"/>
	<path fill="#FFFFFF" d="M308.155,452.118c-0.4-0.3-0.7-7.8-0.7-16.5v-15.8h5.5c4.2,0,5.5,0.3,5.5,1.5c0,1.8,1.2,1.9,2.7,0.4
		c0.6-0.601,2.7-1.4,4.7-1.9l3.6-0.8v5.399v5.4h-3.4c-5.399,0-6.6,2.6-6.6,13.7v9.3h-5.3
		C311.155,452.818,308.455,452.519,308.155,452.118z"/>
	<path fill="#FFFFFF" d="M67.755,437.519c-3.3-5.601-8.2-14.101-10.8-18.9l-4.7-8.8h5h4.9l7.3,12c4,6.6,7.4,12,7.6,12
		c0.2,0,3.5-5.4,7.5-12l7.2-12h4.3c2.4,0,4.4,0.3,4.4,0.8c0,0.8-10.8,20.7-16.5,30.4c-3.5,5.899-4.4,6.8-7,6.8
		C74.255,447.818,73.455,446.918,67.755,437.519z"/>
</g>
</svg>
